<svg id="Layer_1" data-name="Layer 1" xmlns="http://www.w3.org/2000/svg" viewBox="0 0 206 205.99"><defs><style>.cls-1{fill:none;stroke:#000;stroke-miterlimit:10;stroke-width:3px;}.cls-2{fill:#333;}</style></defs><rect class="cls-1" x="1.5" y="1.5" width="203" height="202.99"/><path class="cls-2" d="M1505.12,670.31c-2.77-.36-6.47-1.67-10.23-2.79-1.87-.57-3.73-1.21-5.59-1.81-.38-.12-.76-.28-1.13-.43s-.56-.25-.43-.57.42-.33.71-.29a8.76,8.76,0,0,1,1.35.29,159.16,159.16,0,0,0,15.65,4.23c3.27.68,6.58,1.13,9.85,1.79a19.5,19.5,0,0,1,4.2,1.62.45.45,0,0,1,.16.56c-.07.18-.3.38-.43.37a4.59,4.59,0,0,1-1.53-.25,16.16,16.16,0,0,0-3.34-.83c-2.72-.5-5.42-1.09-9.24-1.89Z" transform="translate(-1327 -551.98)"/><path class="cls-2" d="M1471.48,652.24l-5.82,0a26.94,26.94,0,0,1-4.6-.37c-.82-.14-1.67-.23-2.5-.34-.21,0-.4-.09-.35-.22s.23-.1.38-.13a6.52,6.52,0,0,1,1.71,0,47.49,47.49,0,0,0,6.33.22c2.81,0,5.64-.1,8.44.13.8.07,1.61,0,2.41.07a8.76,8.76,0,0,1,1,.09c.8.11,1.18.31,1,.5s-.72.17-1.09.18c-2.36,0-4.71,0-6.94-.16Z" transform="translate(-1327 -551.98)"/><path class="cls-2" d="M1488.77,659a2.21,2.21,0,0,1-1.78.15c-1.69-.33-3.37-.7-5.06-1a32.72,32.72,0,0,0-3.42-.34,46.49,46.49,0,0,1-8.13-1.28,4.52,4.52,0,0,1-.62-.21c-.2-.09-.39-.19-.36-.35s.27-.17.5-.15c.69.06,1.38.1,2,.21,3.06.5,6.14.8,9.22,1a31.15,31.15,0,0,1,3.87.76c.9.17,1.79.38,2.69.56a1.61,1.61,0,0,1,1,.59Z" transform="translate(-1327 -551.98)"/><path class="cls-2" d="M1488.52,653.36c.07-.32.32-.36.53-.37a13.9,13.9,0,0,1,2.23,0c3.21.39,6.42.15,9.63.3a27.48,27.48,0,0,1,5.12.4,9.15,9.15,0,0,1,1.15.39.4.4,0,0,1,.12.33.46.46,0,0,1-.19.31c-.42.33-.89.15-1.34.13l-6.69-.36c-.86,0-1.72-.05-2.58-.08a69,69,0,0,1-8-1Z" transform="translate(-1327 -551.98)"/><path class="cls-2" d="M1515.54,664a14.26,14.26,0,0,1-3.51-.53c-1.63-.34-3.24-.76-4.87-1.1a5.78,5.78,0,0,0-1,0,5,5,0,0,1-1-.08,71.44,71.44,0,0,0-7.06-1.49.68.68,0,0,1-.28-.17s-.09-.1-.08-.14a.55.55,0,0,1,.12-.3,1,1,0,0,1,.83-.13c1.53.23,3.06.43,4.57.75,1.07.22,2.14.41,3.21.58a36.46,36.46,0,0,1,5,1,21.66,21.66,0,0,0,2.52.52,1.8,1.8,0,0,1,1.54,1.08Z" transform="translate(-1327 -551.98)"/><path class="cls-2" d="M1474.18,662.41c-.08.13-.25.13-.41.09l-4.64-1.12A8.27,8.27,0,0,1,1468,661a.51.51,0,0,1-.27-.27c0-.1.06-.19.25-.18a2,2,0,0,1,.49,0c1.63.43,3.38.48,4.86,1.38.23.14.5.22.75.34.05,0,.07.08.1.11Z" transform="translate(-1327 -551.98)"/><path class="cls-2" d="M1528.88,665.33c.56.13,1.17.27,1.78.45a.64.64,0,0,1,.33.76.82.82,0,0,1-.57.63.37.37,0,0,1-.17.05l-3.94-1.24c-.07,0-.14-.25-.14-.38a.38.38,0,0,1,.23-.26Z" transform="translate(-1327 -551.98)"/><path class="cls-2" d="M1492.63,659.15a8.1,8.1,0,0,1,2.17.61.28.28,0,0,1,.11.26.32.32,0,0,1-.18.25,1.25,1.25,0,0,1-.65.1c-.71-.19-1.42-.43-2.11-.67a.52.52,0,0,1-.31-.34c-.05-.24.18-.21.33-.22s.45,0,.64,0Z" transform="translate(-1327 -551.98)"/><path class="cls-2" d="M1520.72,663.43a5.77,5.77,0,0,1,2.14.76.51.51,0,0,1,.1.38.61.61,0,0,1-.2.37c-.21.1-.47.23-.66.16-.71-.24-1.4-.53-2.09-.84a.69.69,0,0,1-.28-.49c0-.33.2-.31.34-.32a4.9,4.9,0,0,1,.65,0Z" transform="translate(-1327 -551.98)"/><path class="cls-2" d="M1494,694.93c-2.49-1.29-5.51-3.79-8.65-6.13-1.56-1.17-3.08-2.41-4.62-3.62a11.31,11.31,0,0,1-.92-.79c-.2-.19-.45-.42-.21-.69a.61.61,0,0,1,.77,0,8.7,8.7,0,0,1,1.16.73,159,159,0,0,0,13.25,9.36c2.84,1.76,5.79,3.32,8.63,5.06a19.52,19.52,0,0,1,3.39,3,.44.44,0,0,1,0,.58.64.64,0,0,1-.53.2,4.85,4.85,0,0,1-1.35-.76,16.22,16.22,0,0,0-2.85-1.93c-2.39-1.4-4.72-2.88-8-5Z" transform="translate(-1327 -551.98)"/><path class="cls-2" d="M1468.62,666.44l-5.48-2a28,28,0,0,1-4.19-1.93c-.73-.4-1.5-.78-2.24-1.16-.19-.1-.35-.22-.25-.32s.24,0,.39,0a6.47,6.47,0,0,1,1.61.59,49.63,49.63,0,0,0,5.87,2.37,82.69,82.69,0,0,1,7.89,3c.72.33,1.5.58,2.24.88.32.13.63.28.94.44.71.37,1,.69.77.81-.38.19-.74-.09-1.09-.21-2.23-.77-4.41-1.66-6.46-2.52Z" transform="translate(-1327 -551.98)"/><path class="cls-2" d="M1482.55,678.69a2.22,2.22,0,0,1-1.73-.47c-1.47-.89-2.92-1.82-4.42-2.66-1-.55-2-1-3.09-1.49a45.92,45.92,0,0,1-7.19-4,4.27,4.27,0,0,1-.52-.41c-.16-.15-.3-.31-.22-.45s.32-.07.53,0c.62.3,1.26.56,1.85.9,2.7,1.53,5.48,2.86,8.3,4.14a34.84,34.84,0,0,1,3.38,2c.78.47,1.55,1,2.33,1.46a1.64,1.64,0,0,1,.78.91Z" transform="translate(-1327 -551.98)"/><path class="cls-2" d="M1484.24,673.32a.47.47,0,0,1,.63-.16,13.77,13.77,0,0,1,2.11.71c2.87,1.47,6,2.35,8.94,3.58a27.41,27.41,0,0,1,4.68,2.14,8.45,8.45,0,0,1,.94.76c.06,0,0,.26,0,.35a.48.48,0,0,1-.29.23c-.5.16-.89-.16-1.3-.34l-6.16-2.63c-.79-.34-1.6-.64-2.4-1a68.84,68.84,0,0,1-7.15-3.67Z" transform="translate(-1327 -551.98)"/><path class="cls-2" d="M1506,692.63a14.15,14.15,0,0,1-3.11-1.71c-1.41-.87-2.78-1.82-4.19-2.71a6.15,6.15,0,0,0-1-.37,4.09,4.09,0,0,1-.93-.42,70.39,70.39,0,0,0-6.12-3.83.74.74,0,0,1-.21-.25.23.23,0,0,1,0-.16.67.67,0,0,1,.22-.25,1,1,0,0,1,.82.17c1.35.74,2.72,1.46,4,2.27.92.58,1.86,1.13,2.81,1.66a35.31,35.31,0,0,1,4.38,2.7c.68.53,1.47.9,2.19,1.36a1.78,1.78,0,0,1,1.08,1.54Z" transform="translate(-1327 -551.98)"/><path class="cls-2" d="M1467.66,676.89c-.12.09-.29,0-.43-.06l-4-2.65a9.45,9.45,0,0,1-.94-.73.5.5,0,0,1-.15-.34c0-.1.13-.15.31-.08a2,2,0,0,1,.45.18c1.39,1,3,1.6,4.1,3a8,8,0,0,0,.58.59s0,.09.05.13Z" transform="translate(-1327 -551.98)"/><path class="cls-2" d="M1518,698.43c.48.33,1,.67,1.52,1a.65.65,0,0,1,0,.83.84.84,0,0,1-.75.4c-.06,0-.13,0-.17,0l-3.28-2.52c-.06,0,0-.28,0-.4a.43.43,0,0,1,.31-.17l2.33.84Z" transform="translate(-1327 -551.98)"/><path class="cls-2" d="M1486.11,680.17a7.89,7.89,0,0,1,1.83,1.31.33.33,0,0,1,0,.29.32.32,0,0,1-.26.17,1.21,1.21,0,0,1-.64-.13c-.6-.43-1.19-.89-1.76-1.35a.59.59,0,0,1-.17-.43c0-.24.25-.13.39-.09a5.6,5.6,0,0,1,.59.23Z" transform="translate(-1327 -551.98)"/><path class="cls-2" d="M1511,693.85a5.83,5.83,0,0,1,1.75,1.45.54.54,0,0,1,0,.39c-.07.12-.23.27-.32.27-.24,0-.53.06-.68-.07a21.47,21.47,0,0,1-1.67-1.51.7.7,0,0,1-.1-.55c.08-.33.29-.22.44-.19a4.34,4.34,0,0,1,.61.21Z" transform="translate(-1327 -551.98)"/><path class="cls-2" d="M1475.17,714.24c-1.9-2.06-3.9-5.44-6.05-8.71-1.07-1.63-2.07-3.31-3.11-5-.21-.34-.4-.69-.58-1s-.28-.54,0-.71a.59.59,0,0,1,.72.23,8.79,8.79,0,0,1,.84,1.09,159.15,159.15,0,0,0,9.29,13.31c2.06,2.62,4.3,5.09,6.38,7.7a19.21,19.21,0,0,1,2.18,4,.43.43,0,0,1-.24.52.69.69,0,0,1-.58,0,4.94,4.94,0,0,1-1-1.18,16.17,16.17,0,0,0-2-2.78c-1.77-2.14-3.46-4.32-5.86-7.4Z" transform="translate(-1327 -551.98)"/><path class="cls-2" d="M1461,678.79c-1.56-1.3-3-2.51-4.47-3.73a28.07,28.07,0,0,1-3.29-3.25c-.54-.63-1.14-1.24-1.7-1.86-.14-.16-.25-.33-.13-.4s.24.06.37.14a6.63,6.63,0,0,1,1.3,1.11,48.86,48.86,0,0,0,4.71,4.24,84,84,0,0,1,6.38,5.53c.57.57,1.21,1.07,1.81,1.6a10.09,10.09,0,0,1,.72.74c.55.59.71,1,.46,1-.42,0-.67-.34-1-.57-1.84-1.48-3.58-3.06-5.21-4.58Z" transform="translate(-1327 -551.98)"/><path class="cls-2" d="M1469.94,695.08a2.22,2.22,0,0,1-1.47-1c-1.07-1.34-2.12-2.7-3.24-4a30.83,30.83,0,0,0-2.4-2.45,46.23,46.23,0,0,1-5.4-6.22,4.76,4.76,0,0,1-.34-.57c-.1-.19-.18-.39-.06-.5s.32,0,.48.2c.48.49,1,1,1.44,1.48,2,2.36,4.18,4.57,6.39,6.73a34.66,34.66,0,0,1,2.48,3.07c.58.71,1.13,1.45,1.69,2.16a1.69,1.69,0,0,1,.43,1.13Z" transform="translate(-1327 -551.98)"/><path class="cls-2" d="M1473.37,690.61a.47.47,0,0,1,.64.06,14.72,14.72,0,0,1,1.74,1.39c2.2,2.37,4.81,4.25,7.17,6.42a27.22,27.22,0,0,1,3.67,3.61,7.89,7.89,0,0,1,.63,1c0,.06,0,.25-.12.32a.53.53,0,0,1-.36.11c-.53,0-.78-.46-1.11-.77l-4.89-4.58c-.63-.59-1.28-1.15-1.92-1.72a67.39,67.39,0,0,1-5.45-5.89Z" transform="translate(-1327 -551.98)"/><path class="cls-2" d="M1487.17,716.15a14.43,14.43,0,0,1-2.35-2.67c-1-1.3-2-2.66-3-4a7.11,7.11,0,0,0-.77-.67,4.52,4.52,0,0,1-.73-.72,71.46,71.46,0,0,0-4.44-5.67,1,1,0,0,1-.11-.31.22.22,0,0,1,0-.16c.09-.06.19-.15.29-.15a1,1,0,0,1,.71.43c1,1.16,2.06,2.31,3,3.52.68.86,1.37,1.69,2.08,2.52a33.7,33.7,0,0,1,3.2,4c.46.73,1.07,1.34,1.59,2a1.75,1.75,0,0,1,.48,1.8Z" transform="translate(-1327 -551.98)"/><path class="cls-2" d="M1456.53,688.31c-.14.05-.27-.07-.37-.21l-2.84-3.83a9.49,9.49,0,0,1-.63-1,.49.49,0,0,1,0-.37c0-.1.18-.1.32,0a2.37,2.37,0,0,1,.37.32c1,1.38,2.29,2.55,2.83,4.18.08.25.24.5.35.75,0,0,0,.09,0,.14Z" transform="translate(-1327 -551.98)"/><path class="cls-2" d="M1496.55,725.73c.34.47.72,1,1.07,1.49.15.22,0,.55-.25.79a.83.83,0,0,1-.83.12.34.34,0,0,1-.16-.08l-2.23-3.48c0-.07,0-.28.15-.38a.4.4,0,0,1,.35-.05l1.9,1.59Z" transform="translate(-1327 -551.98)"/><path class="cls-2" d="M1472.78,697.69a7.71,7.71,0,0,1,1.28,1.86.33.33,0,0,1-.08.28.4.4,0,0,1-.31.07,1.31,1.31,0,0,1-.56-.35c-.42-.61-.81-1.24-1.19-1.86a.59.59,0,0,1,0-.47c.11-.22.27,0,.39,0a5.15,5.15,0,0,1,.48.42Z" transform="translate(-1327 -551.98)"/><path class="cls-2" d="M1491.53,719a5.66,5.66,0,0,1,1.15,2,.48.48,0,0,1-.17.34.61.61,0,0,1-.4.15c-.23-.06-.51-.13-.61-.3a22.07,22.07,0,0,1-1-2,.67.67,0,0,1,.1-.55c.19-.28.36-.1.48,0a3.64,3.64,0,0,1,.5.4Z" transform="translate(-1327 -551.98)"/><path class="cls-2" d="M1450.84,726c-1.08-2.58-1.79-6.45-2.69-10.26-.44-1.9-.81-3.83-1.22-5.74-.08-.39-.14-.79-.19-1.19s-.07-.61.28-.65a.63.63,0,0,1,.61.48,9.06,9.06,0,0,1,.42,1.31,157.79,157.79,0,0,0,4.14,15.67c1,3.17,2.31,6.27,3.37,9.44a19.48,19.48,0,0,1,.69,4.44c0,.21-.21.38-.41.41s-.49-.08-.54-.2a4.61,4.61,0,0,1-.55-1.44,15.36,15.36,0,0,0-1-3.32c-.92-2.61-1.76-5.24-3-8.95Z" transform="translate(-1327 -551.98)"/><path class="cls-2" d="M1449.68,687.86c-1-1.76-2-3.4-2.93-5a27.35,27.35,0,0,1-2-4.17c-.3-.78-.65-1.56-1-2.34-.08-.19-.13-.4,0-.42s.2.14.29.26a6.45,6.45,0,0,1,.85,1.48,52.82,52.82,0,0,0,3,5.6,84.12,84.12,0,0,1,4.12,7.37c.34.73.77,1.41,1.15,2.12a8.88,8.88,0,0,1,.44.94c.3.75.33,1.18.07,1.13s-.5-.54-.69-.85c-1.22-2-2.32-4.1-3.34-6.08Z" transform="translate(-1327 -551.98)"/><path class="cls-2" d="M1452.49,706.18a2.23,2.23,0,0,1-1-1.47c-.55-1.63-1.06-3.27-1.68-4.87a30.25,30.25,0,0,0-1.41-3.13,45.86,45.86,0,0,1-2.94-7.68,3.63,3.63,0,0,1-.13-.64c0-.22,0-.42.12-.49s.28.15.38.36c.28.62.6,1.24.84,1.88,1.09,2.9,2.37,5.71,3.71,8.5a35.85,35.85,0,0,1,1.28,3.74c.3.87.57,1.75.86,2.61a1.58,1.58,0,0,1,0,1.19Z" transform="translate(-1327 -551.98)"/><path class="cls-2" d="M1457.24,703.15a.49.49,0,0,1,.59.29,13.79,13.79,0,0,1,1.16,1.9c1.25,3,3.08,5.64,4.55,8.48a27.82,27.82,0,0,1,2.22,4.64,7.82,7.82,0,0,1,.23,1.19c0,.07-.13.22-.23.26a.52.52,0,0,1-.37,0c-.49-.21-.58-.7-.78-1.1l-3-6c-.39-.77-.81-1.52-1.22-2.28a67.19,67.19,0,0,1-3.11-7.39Z" transform="translate(-1327 -551.98)"/><path class="cls-2" d="M1461.48,731.87a14.06,14.06,0,0,1-1.29-3.31c-.52-1.57-1-3.18-1.48-4.76a5.63,5.63,0,0,0-.49-.9,4.09,4.09,0,0,1-.44-.92,71.1,71.1,0,0,0-2.23-6.85.74.74,0,0,1,0-.33s0-.12.09-.13a.52.52,0,0,1,.32,0,1,1,0,0,1,.53.65c.56,1.44,1.15,2.87,1.63,4.34.34,1,.71,2,1.1,3.07a35.78,35.78,0,0,1,1.62,4.88,23.24,23.24,0,0,0,.81,2.44,1.76,1.76,0,0,1-.17,1.86Z" transform="translate(-1327 -551.98)"/><path class="cls-2" d="M1442.24,695.22c-.15,0-.24-.16-.28-.32l-1.35-4.57a9.61,9.61,0,0,1-.25-1.16.54.54,0,0,1,.1-.37c.07-.07.2,0,.29.14a2,2,0,0,1,.23.43c.44,1.62,1.28,3.17,1.23,4.89a8,8,0,0,0,.08.83.29.29,0,0,1,0,.13Z" transform="translate(-1327 -551.98)"/><path class="cls-2" d="M1467,744.08c.16.56.34,1.16.49,1.77.06.25-.15.53-.5.66a.84.84,0,0,1-.83-.17s-.11-.07-.12-.12l-.9-4c0-.08.14-.25.27-.31a.37.37,0,0,1,.34.07l1.25,2.14Z" transform="translate(-1327 -551.98)"/><path class="cls-2" d="M1454.28,709.61a7.87,7.87,0,0,1,.56,2.18.34.34,0,0,1-.18.23.34.34,0,0,1-.31,0,1.31,1.31,0,0,1-.41-.51c-.19-.72-.34-1.44-.47-2.16a.52.52,0,0,1,.15-.43c.17-.16.27.06.35.18s.22.4.31.56Z" transform="translate(-1327 -551.98)"/><path class="cls-2" d="M1464.59,736.08a5.69,5.69,0,0,1,.41,2.23c0,.08-.17.23-.28.27a.55.55,0,0,1-.42,0c-.2-.14-.44-.29-.48-.49-.14-.73-.23-1.48-.3-2.22a.66.66,0,0,1,.28-.49c.27-.2.37,0,.46.14a4.27,4.27,0,0,1,.33.56Z" transform="translate(-1327 -551.98)"/><path class="cls-2" d="M1424,728.66c-.13-2.8.52-6.67,1-10.56.23-1.94.54-3.87.81-5.81a11.71,11.71,0,0,1,.23-1.18c.06-.28.14-.6.48-.52s.4.36.41.66a9,9,0,0,1-.05,1.37,158.54,158.54,0,0,0-1.45,16.15c-.1,3.34,0,6.69-.05,10a19.69,19.69,0,0,1-.87,4.41.43.43,0,0,1-.52.24.67.67,0,0,1-.44-.37,4.69,4.69,0,0,1,0-1.54,15.9,15.9,0,0,0,.24-3.44c0-2.77.13-5.53.26-9.43Z" transform="translate(-1327 -551.98)"/><path class="cls-2" d="M1436,692.44c-.36-2-.69-3.87-1-5.74a27.71,27.71,0,0,1-.43-4.59c0-.83-.07-1.69-.11-2.53,0-.21,0-.42.15-.4s.14.2.19.35a6.51,6.51,0,0,1,.29,1.68,50.08,50.08,0,0,0,.88,6.29,82.72,82.72,0,0,1,1.32,8.34c.07.79.25,1.59.36,2.39a8.76,8.76,0,0,1,.08,1c0,.8-.09,1.22-.31,1.09s-.29-.69-.37-1.05c-.44-2.32-.76-4.66-1-6.86Z" transform="translate(-1327 -551.98)"/><path class="cls-2" d="M1432.3,710.62a2.22,2.22,0,0,1-.45-1.74c0-1.72.11-3.43.09-5.15a32.59,32.59,0,0,0-.26-3.42,45.29,45.29,0,0,1-.13-8.23,4.63,4.63,0,0,1,.1-.65c0-.21.12-.4.28-.41s.22.24.24.46c.06.69.14,1.38.15,2.06,0,3.1.26,6.18.57,9.26a34.67,34.67,0,0,1-.09,4c0,.92-.06,1.84-.09,2.75a1.59,1.59,0,0,1-.41,1.12Z" transform="translate(-1327 -551.98)"/><path class="cls-2" d="M1437.81,709.39c.33,0,.41.26.45.48a13.7,13.7,0,0,1,.44,2.19c.16,3.21,1,6.34,1.36,9.53a27.38,27.38,0,0,1,.48,5.11,8.31,8.31,0,0,1-.19,1.2c0,.07-.2.16-.3.16a.52.52,0,0,1-.35-.14c-.39-.36-.3-.85-.35-1.3l-.8-6.65c-.1-.86-.24-1.71-.36-2.56a69.24,69.24,0,0,1-.38-8Z" transform="translate(-1327 -551.98)"/><path class="cls-2" d="M1431.94,737.83a14.21,14.21,0,0,1-.08-3.55c.05-1.66.19-3.32.25-5a6.05,6.05,0,0,0-.16-1,5,5,0,0,1-.1-1,69.3,69.3,0,0,0,.26-7.2.77.77,0,0,1,.11-.31s.09-.1.13-.09a.54.54,0,0,1,.32.07,1,1,0,0,1,.27.8c0,1.54.09,3.09,0,4.63,0,1.09,0,2.17,0,3.26a34,34,0,0,1-.15,5.14c-.11.85,0,1.71-.08,2.57a1.75,1.75,0,0,1-.79,1.69Z" transform="translate(-1327 -551.98)"/><path class="cls-2" d="M1426.38,696.81c-.14,0-.16-.23-.15-.39l.29-4.77a7.66,7.66,0,0,1,.16-1.17.49.49,0,0,1,.22-.31c.09,0,.19,0,.23.23a2.78,2.78,0,0,1,.07.48c-.14,1.68.12,3.43-.51,5-.1.25-.14.54-.22.8,0,0-.06.08-.09.11Z" transform="translate(-1327 -551.98)"/><path class="cls-2" d="M1433,751.2c0,.58-.07,1.2-.14,1.83,0,.26-.33.45-.7.44a.8.8,0,0,1-.71-.43.41.41,0,0,1-.07-.17l.53-4.1c0-.07.22-.18.36-.2s.28.11.29.19c.14.79.29,1.59.44,2.44Z" transform="translate(-1327 -551.98)"/><path class="cls-2" d="M1432.81,714.46a7.42,7.42,0,0,1-.23,2.22.28.28,0,0,1-.24.16.38.38,0,0,1-.28-.14,1.29,1.29,0,0,1-.2-.63c.07-.73.17-1.47.29-2.19a.51.51,0,0,1,.29-.35c.22-.09.24.15.27.29s.07.45.1.64Z" transform="translate(-1327 -551.98)"/><path class="cls-2" d="M1433.42,742.85a5.79,5.79,0,0,1-.38,2.23.48.48,0,0,1-.35.16.6.6,0,0,1-.4-.14c-.13-.2-.31-.42-.28-.62.12-.74.29-1.47.47-2.2a.67.67,0,0,1,.43-.35c.33-.1.34.14.38.28a6.06,6.06,0,0,1,.13.64Z" transform="translate(-1327 -551.98)"/><path class="cls-2" d="M1397.81,722c.83-2.67,2.77-6.08,4.53-9.58.89-1.75,1.84-3.45,2.76-5.18a11.71,11.71,0,0,1,.62-1c.15-.24.34-.52.63-.32a.63.63,0,0,1,.16.76,10,10,0,0,1-.52,1.27,158.07,158.07,0,0,0-6.9,14.67c-1.24,3.1-2.27,6.29-3.49,9.39a19.58,19.58,0,0,1-2.33,3.84.43.43,0,0,1-.57,0,.65.65,0,0,1-.29-.5,4.47,4.47,0,0,1,.51-1.45,15.84,15.84,0,0,0,1.4-3.15c1-2.59,2-5.15,3.49-8.77Z" transform="translate(-1327 -551.98)"/><path class="cls-2" d="M1421.42,692.07c.35-2,.67-3.88,1-5.74a26.66,26.66,0,0,1,1.16-4.47c.27-.8.5-1.62.76-2.42.06-.2.15-.39.27-.32s.06.23.06.39a6.3,6.3,0,0,1-.3,1.68,51.06,51.06,0,0,0-1.31,6.21,84.12,84.12,0,0,1-1.59,8.29c-.2.77-.31,1.58-.48,2.37a9.27,9.27,0,0,1-.27,1c-.24.76-.5,1.11-.66.91s0-.74,0-1.1c.36-2.33.86-4.63,1.35-6.8Z" transform="translate(-1327 -551.98)"/><path class="cls-2" d="M1411.8,707.92a2.3,2.3,0,0,1,.16-1.8c.63-1.6,1.28-3.18,1.84-4.8a29.59,29.59,0,0,0,.93-3.31,47.21,47.21,0,0,1,2.68-7.77,4.57,4.57,0,0,1,.32-.58c.11-.18.25-.35.4-.3s.13.29.07.51c-.19.67-.34,1.34-.57,2-1,2.92-1.86,5.9-2.62,8.9a36.32,36.32,0,0,1-1.42,3.68c-.33.86-.69,1.7-1,2.56a1.6,1.6,0,0,1-.76.92Z" transform="translate(-1327 -551.98)"/><path class="cls-2" d="M1417.39,708.64c.3.13.29.38.26.6a14.54,14.54,0,0,1-.34,2.21c-.94,3.07-1.26,6.29-2,9.42a26.78,26.78,0,0,1-1.28,5,9,9,0,0,1-.58,1,.44.44,0,0,1-.35.06.55.55,0,0,1-.27-.25c-.25-.48,0-.91.1-1.35l1.52-6.53c.19-.84.35-1.68.53-2.52a67.38,67.38,0,0,1,2.37-7.67Z" transform="translate(-1327 -551.98)"/><path class="cls-2" d="M1402.17,733.37a14.06,14.06,0,0,1,1.14-3.37c.61-1.54,1.31-3,1.93-4.59a5.47,5.47,0,0,0,.2-1,4.23,4.23,0,0,1,.25-1,70.11,70.11,0,0,0,2.7-6.68.82.82,0,0,1,.21-.25.2.2,0,0,1,.16,0c.1,0,.23.09.27.18a1,1,0,0,1,0,.84c-.49,1.46-1,2.93-1.53,4.37-.41,1-.78,2-1.14,3a35.18,35.18,0,0,1-1.89,4.78c-.4.76-.63,1.6-1,2.39a1.75,1.75,0,0,1-1.32,1.32Z" transform="translate(-1327 -551.98)"/><path class="cls-2" d="M1411,692.93c-.11-.1-.07-.28,0-.43l1.91-4.37a9.56,9.56,0,0,1,.56-1,.49.49,0,0,1,.31-.21c.1,0,.17.1.13.29a2,2,0,0,1-.1.48c-.7,1.53-1.06,3.25-2.2,4.54-.18.19-.31.45-.48.67,0,0-.08,0-.12.08Z" transform="translate(-1327 -551.98)"/><path class="cls-2" d="M1398.56,746.28c-.23.53-.48,1.11-.76,1.68-.11.23-.46.3-.81.17a.82.82,0,0,1-.52-.66c0-.06,0-.12,0-.17l1.9-3.67c0-.07.27-.1.41-.07s.23.2.21.28c-.13.79-.27,1.59-.42,2.44Z" transform="translate(-1327 -551.98)"/><path class="cls-2" d="M1411,711.7a7.7,7.7,0,0,1-1,2,.3.3,0,0,1-.28.06.39.39,0,0,1-.21-.23,1.22,1.22,0,0,1,0-.66c.31-.67.66-1.32,1-2a.54.54,0,0,1,.39-.23c.24,0,.17.22.16.37s-.09.44-.13.63Z" transform="translate(-1327 -551.98)"/><path class="cls-2" d="M1401.85,738.59a5.58,5.58,0,0,1-1.12,2,.51.51,0,0,1-.39,0c-.13-.05-.3-.18-.32-.27a1,1,0,0,1,0-.68,20,20,0,0,1,1.19-1.9.69.69,0,0,1,.53-.19c.34,0,.27.26.26.4a5.08,5.08,0,0,1-.1.64Z" transform="translate(-1327 -551.98)"/><path class="cls-2" d="M1375.51,706.8c1.7-2.22,4.69-4.77,7.54-7.46,1.42-1.34,2.91-2.61,4.36-3.93.3-.27.62-.52.94-.76s.49-.36.7-.08a.6.6,0,0,1-.11.77,8,8,0,0,1-.92,1,159,159,0,0,0-11.5,11.43c-2.23,2.49-4.28,5.13-6.49,7.63a19.48,19.48,0,0,1-3.5,2.82.44.44,0,0,1-.56-.14c-.11-.16-.18-.46-.1-.57a4.72,4.72,0,0,1,1-1.19,16.48,16.48,0,0,0,2.39-2.48c1.8-2.1,3.66-4.15,6.27-7.05Z" transform="translate(-1327 -551.98)"/><path class="cls-2" d="M1408,686.76l2.9-5a27.73,27.73,0,0,1,2.63-3.79c.52-.64,1-1.34,1.54-2,.13-.17.28-.31.37-.21s0,.24-.08.38a6.55,6.55,0,0,1-.85,1.48,47.69,47.69,0,0,0-3.37,5.38c-1.37,2.45-2.73,4.92-4.35,7.24-.46.66-.83,1.38-1.26,2.06a9.86,9.86,0,0,1-.6.84c-.49.64-.86.88-.94.64-.12-.42.22-.72.4-1,1.14-2.07,2.4-4.06,3.61-5.93Z" transform="translate(-1327 -551.98)"/><path class="cls-2" d="M1393.49,698.33a2.22,2.22,0,0,1,.76-1.62c1.14-1.29,2.3-2.56,3.38-3.89a32.16,32.16,0,0,0,2-2.78,46.36,46.36,0,0,1,5.18-6.39,4.06,4.06,0,0,1,.5-.43c.17-.13.35-.24.47-.14s0,.33-.11.52c-.4.56-.78,1.14-1.21,1.67-2,2.39-3.78,4.9-5.52,7.45a33.69,33.69,0,0,1-2.6,3c-.6.7-1.23,1.36-1.83,2a1.58,1.58,0,0,1-1,.6Z" transform="translate(-1327 -551.98)"/><path class="cls-2" d="M1398.49,700.94a.49.49,0,0,1,0,.65,13.1,13.1,0,0,1-1.07,1.95c-2,2.57-3.35,5.48-5.09,8.18a26.68,26.68,0,0,1-2.91,4.23,8.68,8.68,0,0,1-.91.8.47.47,0,0,1-.35-.07.53.53,0,0,1-.17-.33c-.06-.53.32-.85.56-1.22l3.67-5.61c.47-.72.91-1.46,1.37-2.19a67.18,67.18,0,0,1,4.86-6.39Z" transform="translate(-1327 -551.98)"/><path class="cls-2" d="M1375.71,719a14.19,14.19,0,0,1,2.22-2.77c1.11-1.24,2.28-2.42,3.39-3.66a5.46,5.46,0,0,0,.53-.87,5.09,5.09,0,0,1,.58-.85,70,70,0,0,0,4.83-5.35.64.64,0,0,1,.28-.16.18.18,0,0,1,.16,0c.08.07.19.16.2.26a1,1,0,0,1-.3.78c-1,1.2-1.91,2.43-2.94,3.58-.73.81-1.43,1.64-2.12,2.48a35.54,35.54,0,0,1-3.42,3.84c-.64.58-1.14,1.29-1.72,1.92a1.75,1.75,0,0,1-1.69.79Z" transform="translate(-1327 -551.98)"/><path class="cls-2" d="M1397.84,684c-.08-.13,0-.28.13-.4l3.28-3.46a11.28,11.28,0,0,1,.89-.8.53.53,0,0,1,.37-.09c.1,0,.12.15,0,.32a2.39,2.39,0,0,1-.26.41c-1.19,1.2-2.1,2.69-3.62,3.52a7.51,7.51,0,0,0-.68.47s-.1,0-.14,0Z" transform="translate(-1327 -551.98)"/><path class="cls-2" d="M1367.89,729.84c-.4.42-.83.88-1.28,1.32a.64.64,0,0,1-.82-.11.79.79,0,0,1-.27-.79c0-.06,0-.14,0-.17l3-2.8c.06,0,.28,0,.4.07s.15.27.11.33c-.4.7-.8,1.4-1.24,2.15Z" transform="translate(-1327 -551.98)"/><path class="cls-2" d="M1391.41,701.59a7.71,7.71,0,0,1-1.61,1.57.33.33,0,0,1-.29,0,.39.39,0,0,1-.12-.29,1.2,1.2,0,0,1,.25-.61c.52-.52,1.07-1,1.63-1.5a.55.55,0,0,1,.45-.08c.23.07.08.26,0,.39s-.24.39-.33.55Z" transform="translate(-1327 -551.98)"/><path class="cls-2" d="M1373.62,723.74a5.82,5.82,0,0,1-1.73,1.47.5.5,0,0,1-.37-.11.54.54,0,0,1-.22-.36,1,1,0,0,1,.19-.65,21.52,21.52,0,0,1,1.77-1.38.68.68,0,0,1,.56,0c.31.13.17.33.11.46a5.86,5.86,0,0,1-.31.57Z" transform="translate(-1327 -551.98)"/><path class="cls-2" d="M1359.72,684.91c2.36-1.52,6-2.89,9.64-4.44,1.8-.77,3.63-1.47,5.44-2.21a12,12,0,0,1,1.15-.39c.27-.09.59-.18.7.16s-.12.52-.37.67a8.24,8.24,0,0,1-1.21.64,159.41,159.41,0,0,0-14.71,6.83c-2.95,1.58-5.77,3.36-8.7,5a19.32,19.32,0,0,1-4.26,1.46.44.44,0,0,1-.48-.32.63.63,0,0,1,.09-.57,5.14,5.14,0,0,1,1.33-.79,15.51,15.51,0,0,0,3.09-1.51c2.41-1.36,4.85-2.65,8.29-4.48Z" transform="translate(-1327 -551.98)"/><path class="cls-2" d="M1397.1,677.12l4.45-3.76a28.26,28.26,0,0,1,3.76-2.67c.72-.42,1.42-.9,2.12-1.35.18-.11.37-.19.42-.06s-.1.22-.2.33a6.83,6.83,0,0,1-1.31,1.1,49.26,49.26,0,0,0-5,3.91,82.27,82.27,0,0,1-6.55,5.33c-.65.46-1.25,1-1.89,1.5a8,8,0,0,1-.84.59c-.68.43-1.1.52-1.09.26,0-.42.45-.6.73-.84,1.78-1.55,3.64-3,5.41-4.34Z" transform="translate(-1327 -551.98)"/><path class="cls-2" d="M1379.53,683.07a2.19,2.19,0,0,1,1.27-1.26c1.5-.83,3-1.63,4.5-2.51a30.75,30.75,0,0,0,2.83-1.94,46,46,0,0,1,7.06-4.24,3.79,3.79,0,0,1,.61-.23c.21-.07.42-.11.5,0s-.1.31-.29.44c-.56.39-1.12.81-1.71,1.16-2.66,1.57-5.21,3.32-7.72,5.13a34.38,34.38,0,0,1-3.46,1.91c-.79.45-1.61.86-2.42,1.29a1.58,1.58,0,0,1-1.17.22Z" transform="translate(-1327 -551.98)"/><path class="cls-2" d="M1383.34,687.22a.48.48,0,0,1-.17.63,15.51,15.51,0,0,1-1.68,1.47c-2.7,1.75-5,4-7.56,5.95a26.81,26.81,0,0,1-4.19,3,7.35,7.35,0,0,1-1.13.44c-.07,0-.24-.09-.3-.18a.5.5,0,0,1,0-.36c.11-.52.59-.69.94-1l5.36-4c.69-.51,1.35-1.06,2-1.59a69.35,69.35,0,0,1,6.75-4.36Z" transform="translate(-1327 -551.98)"/><path class="cls-2" d="M1355.78,696.41a14.17,14.17,0,0,1,3-1.85c1.46-.79,3-1.5,4.44-2.28a6.15,6.15,0,0,0,.8-.65,4.14,4.14,0,0,1,.82-.59,70.56,70.56,0,0,0,6.37-3.4.72.72,0,0,1,.33,0,.16.16,0,0,1,.15.06.57.57,0,0,1,.1.31,1,1,0,0,1-.55.63c-1.32.8-2.63,1.63-4,2.36-1,.52-1.9,1.06-2.84,1.62a35.78,35.78,0,0,1-4.52,2.45c-.8.33-1.51.82-2.27,1.22a1.8,1.8,0,0,1-1.87.17Z" transform="translate(-1327 -551.98)"/><path class="cls-2" d="M1388.51,671.06c0-.14.12-.26.26-.33l4.27-2.13a9.34,9.34,0,0,1,1.1-.44.49.49,0,0,1,.38,0c.09.06.07.19-.08.31a2.63,2.63,0,0,1-.38.3c-1.52.72-2.89,1.81-4.61,2.07-.26,0-.53.15-.8.22a.32.32,0,0,1-.14,0Z" transform="translate(-1327 -551.98)"/><path class="cls-2" d="M1344.73,704c-.52.26-1.08.55-1.66.8-.24.11-.55-.06-.74-.38a.79.79,0,0,1,0-.84s.05-.12.1-.14l3.81-1.59c.07,0,.27.1.36.21a.39.39,0,0,1,0,.35l-1.89,1.59Z" transform="translate(-1327 -551.98)"/><path class="cls-2" d="M1376.47,685.42a7.38,7.38,0,0,1-2,.93.28.28,0,0,1-.26-.13.34.34,0,0,1,0-.31,1.31,1.31,0,0,1,.44-.49c.67-.31,1.35-.58,2-.85a.62.62,0,0,1,.46.07c.19.15,0,.28-.12.38a5.1,5.1,0,0,1-.49.4Z" transform="translate(-1327 -551.98)"/><path class="cls-2" d="M1352.2,700.19a5.73,5.73,0,0,1-2.14.8.51.51,0,0,1-.31-.23.53.53,0,0,1-.08-.41c.09-.21.2-.48.39-.55a22.43,22.43,0,0,1,2.15-.69.67.67,0,0,1,.52.18c.25.24,0,.37,0,.48a5.53,5.53,0,0,1-.48.42Z" transform="translate(-1327 -551.98)"/><path class="cls-2" d="M1352.41,658.89c2.74-.61,6.66-.63,10.57-.85,2-.11,3.92-.13,5.87-.21.4,0,.81,0,1.21,0s.62,0,.61.39-.29.45-.58.51a7.67,7.67,0,0,1-1.36.18,159.07,159.07,0,0,0-16.16,1.35c-3.31.47-6.57,1.17-9.87,1.66a18.93,18.93,0,0,1-4.51-.09c-.2,0-.34-.27-.34-.47a.67.67,0,0,1,.28-.5,4.74,4.74,0,0,1,1.52-.28,15.8,15.8,0,0,0,3.43-.36c2.72-.45,5.46-.82,9.33-1.36Z" transform="translate(-1327 -551.98)"/><path class="cls-2" d="M1390.18,664.4l5.47-2a27.48,27.48,0,0,1,4.45-1.22c.82-.16,1.64-.37,2.46-.55.21,0,.41-.06.41.08s-.18.17-.32.25a7,7,0,0,1-1.6.58,48.14,48.14,0,0,0-6,2c-2.63,1-5.26,2-8,2.76-.77.21-1.52.52-2.29.77-.32.1-.66.19-1,.26-.79.17-1.22.11-1.12-.12.17-.39.63-.41,1-.55,2.2-.84,4.45-1.56,6.57-2.22Z" transform="translate(-1327 -551.98)"/><path class="cls-2" d="M1371.64,664a2.23,2.23,0,0,1,1.62-.75c1.7-.25,3.4-.48,5.09-.8a33.59,33.59,0,0,0,3.32-.84,45.69,45.69,0,0,1,8.09-1.56,4.85,4.85,0,0,1,.66,0c.22,0,.43,0,.46.2s-.2.26-.42.32c-.67.17-1.33.38-2,.5-3,.56-6,1.33-9,2.17a34.68,34.68,0,0,1-3.9.6c-.91.15-1.81.25-2.72.38a1.59,1.59,0,0,1-1.18-.2Z" transform="translate(-1327 -551.98)"/><path class="cls-2" d="M1373.79,669.18c0,.32-.18.44-.38.52a13.56,13.56,0,0,1-2.08.81c-3.14.72-6.08,2-9.14,3a27.41,27.41,0,0,1-5,1.37,8.26,8.26,0,0,1-1.22,0c-.07,0-.2-.16-.22-.27a.5.5,0,0,1,.07-.36c.29-.44.79-.44,1.22-.58l6.41-1.94c.82-.25,1.64-.53,2.46-.8a67.38,67.38,0,0,1,7.84-1.78Z" transform="translate(-1327 -551.98)"/><path class="cls-2" d="M1344.75,668.33a14.2,14.2,0,0,1,3.48-.69c1.64-.24,3.3-.39,5-.62a5.29,5.29,0,0,0,1-.33,4.33,4.33,0,0,1,1-.27,68.68,68.68,0,0,0,7.15-1,.91.91,0,0,1,.32.06c.05,0,.12.07.12.11a.52.52,0,0,1,0,.33,1,1,0,0,1-.73.4c-1.51.3-3,.63-4.55.85-1.08.15-2.15.34-3.23.54a34.7,34.7,0,0,1-5.09.75c-.86,0-1.7.25-2.55.36a1.76,1.76,0,0,1-1.81-.49Z" transform="translate(-1327 -551.98)"/><path class="cls-2" d="M1384.2,655.79c0-.15.2-.21.36-.23l4.75-.53a9.31,9.31,0,0,1,1.18,0,.53.53,0,0,1,.34.17c.06.08,0,.2-.18.26a2.06,2.06,0,0,1-.46.15c-1.68.15-3.34.7-5,.36-.26,0-.56,0-.83-.07a.35.35,0,0,1-.12-.07Z" transform="translate(-1327 -551.98)"/><path class="cls-2" d="M1331.76,671.65c-.57.06-1.2.14-1.83.18-.26,0-.5-.25-.55-.61a.84.84,0,0,1,.31-.79s.1-.09.15-.09l4.12-.18c.08,0,.22.18.26.31a.44.44,0,0,1-.14.33l-2.32.85Z" transform="translate(-1327 -551.98)"/><path class="cls-2" d="M1368,665.13a7.45,7.45,0,0,1-2.24.17.3.3,0,0,1-.2-.21.36.36,0,0,1,.08-.3,1.37,1.37,0,0,1,.58-.31c.74-.06,1.48-.08,2.22-.09a.56.56,0,0,1,.4.22c.14.2-.1.26-.23.32s-.43.14-.61.2Z" transform="translate(-1327 -551.98)"/><path class="cls-2" d="M1340.08,670.66a5.65,5.65,0,0,1-2.28,0,.49.49,0,0,1-.22-.32.55.55,0,0,1,.07-.41c.17-.17.36-.38.57-.39.74,0,1.48,0,2.24.09a.68.68,0,0,1,.43.36c.16.3-.08.36-.21.43s-.42.16-.6.23Z" transform="translate(-1327 -551.98)"/><path class="cls-2" d="M1354.41,632c2.77.35,6.48,1.67,10.24,2.79,1.87.56,3.72,1.21,5.59,1.81a11.91,11.91,0,0,1,1.13.43c.26.11.56.24.43.57a.62.62,0,0,1-.72.29,8.9,8.9,0,0,1-1.34-.29,155.88,155.88,0,0,0-15.66-4.23c-3.26-.68-6.57-1.13-9.85-1.8a18.89,18.89,0,0,1-4.2-1.62.44.44,0,0,1-.15-.55c.07-.18.3-.39.43-.38a4.63,4.63,0,0,1,1.53.25,16,16,0,0,0,3.34.83c2.72.5,5.42,1.09,9.23,1.9Z" transform="translate(-1327 -551.98)"/><path class="cls-2" d="M1388.05,650.05l5.83,0a28.09,28.09,0,0,1,4.6.38c.82.13,1.67.22,2.5.33.2,0,.4.09.35.22s-.23.11-.38.13a6.53,6.53,0,0,1-1.71,0,49.28,49.28,0,0,0-6.33-.23,81.92,81.92,0,0,1-8.44-.13c-.8-.07-1.61,0-2.42-.06a8.8,8.8,0,0,1-1-.1c-.8-.1-1.18-.3-1-.5s.72-.17,1.09-.18c2.36,0,4.71.05,6.93.16Z" transform="translate(-1327 -551.98)"/><path class="cls-2" d="M1370.77,643.31a2.21,2.21,0,0,1,1.78-.16c1.69.34,3.36.71,5.06,1a30.26,30.26,0,0,0,3.41.33,45.3,45.3,0,0,1,8.13,1.29,4.23,4.23,0,0,1,.63.21c.2.08.39.18.36.34s-.28.18-.5.16c-.69-.07-1.38-.1-2.06-.21-3-.51-6.13-.81-9.22-1a35.58,35.58,0,0,1-3.86-.76c-.91-.17-1.8-.38-2.69-.56a1.65,1.65,0,0,1-1-.59Z" transform="translate(-1327 -551.98)"/><path class="cls-2" d="M1371,648.94c-.07.32-.32.36-.54.37a15,15,0,0,1-2.22.05c-3.21-.4-6.42-.16-9.63-.3a26.83,26.83,0,0,1-5.13-.41,6.67,6.67,0,0,1-1.14-.39.39.39,0,0,1-.12-.33.51.51,0,0,1,.19-.31c.42-.32.89-.15,1.34-.13l6.69.37c.86,0,1.72,0,2.58.08a66.92,66.92,0,0,1,8,1Z" transform="translate(-1327 -551.98)"/><path class="cls-2" d="M1344,638.26a14.26,14.26,0,0,1,3.51.54c1.63.33,3.24.76,4.87,1.1a5.78,5.78,0,0,0,1,0,4.34,4.34,0,0,1,1,.07,70.88,70.88,0,0,0,7.06,1.5.72.72,0,0,1,.28.16s.09.11.08.15,0,.24-.12.3a1,1,0,0,1-.83.13c-1.53-.23-3.06-.44-4.57-.75-1.07-.22-2.14-.42-3.22-.59a33.62,33.62,0,0,1-5-1c-.82-.26-1.68-.34-2.52-.52a1.78,1.78,0,0,1-1.54-1.08Z" transform="translate(-1327 -551.98)"/><path class="cls-2" d="M1385.36,639.88c.07-.13.25-.12.41-.09l4.64,1.12a9.94,9.94,0,0,1,1.13.36.56.56,0,0,1,.27.28c0,.1-.06.18-.26.18a1.92,1.92,0,0,1-.48,0c-1.63-.43-3.38-.48-4.86-1.38-.23-.14-.51-.23-.76-.35,0,0-.06-.07-.09-.11Z" transform="translate(-1327 -551.98)"/><path class="cls-2" d="M1330.66,637c-.56-.14-1.17-.28-1.78-.45a.65.65,0,0,1-.33-.77.82.82,0,0,1,.57-.63c.05,0,.12-.06.17,0l3.93,1.23c.08,0,.15.25.15.39s-.16.26-.23.26Z" transform="translate(-1327 -551.98)"/><path class="cls-2" d="M1366.91,643.14a7.74,7.74,0,0,1-2.17-.6.33.33,0,0,1-.12-.27.41.41,0,0,1,.19-.25,1.24,1.24,0,0,1,.65-.09c.71.19,1.42.42,2.11.66a.63.63,0,0,1,.31.35c0,.23-.19.21-.33.21a4.43,4.43,0,0,1-.64,0Z" transform="translate(-1327 -551.98)"/><path class="cls-2" d="M1338.82,638.86a5.6,5.6,0,0,1-2.14-.76.48.48,0,0,1-.1-.37.56.56,0,0,1,.2-.37,1,1,0,0,1,.66-.17c.7.24,1.4.54,2.08.85a.68.68,0,0,1,.29.48c0,.34-.2.31-.35.33a4.62,4.62,0,0,1-.64,0Z" transform="translate(-1327 -551.98)"/><path class="cls-2" d="M1365.53,607.36c2.49,1.29,5.51,3.79,8.65,6.13,1.56,1.17,3.08,2.42,4.62,3.62.32.25.62.52.91.79s.45.43.22.69a.61.61,0,0,1-.77,0,9.85,9.85,0,0,1-1.16-.73,159,159,0,0,0-13.25-9.36c-2.84-1.76-5.79-3.32-8.63-5.07a19.9,19.9,0,0,1-3.4-3,.46.46,0,0,1,0-.58.64.64,0,0,1,.53-.21,4.65,4.65,0,0,1,1.34.76,15.6,15.6,0,0,0,2.86,1.93c2.38,1.41,4.72,2.89,8,5Z" transform="translate(-1327 -551.98)"/><path class="cls-2" d="M1390.92,635.86l5.48,2a28.46,28.46,0,0,1,4.19,1.92c.73.41,1.5.78,2.24,1.17.18.09.35.22.25.32s-.24,0-.4,0a7.49,7.49,0,0,1-1.6-.59,50.37,50.37,0,0,0-5.87-2.38,82.62,82.62,0,0,1-7.89-3c-.72-.34-1.5-.58-2.25-.88-.31-.13-.63-.28-.93-.44-.71-.37-1-.69-.77-.81.38-.19.74.09,1.09.2,2.23.77,4.41,1.66,6.46,2.53Z" transform="translate(-1327 -551.98)"/><path class="cls-2" d="M1377,623.61a2.22,2.22,0,0,1,1.73.46c1.47.9,2.92,1.83,4.42,2.66a29.27,29.27,0,0,0,3.09,1.49,46.74,46.74,0,0,1,7.19,4,3.45,3.45,0,0,1,.51.42c.17.14.31.31.23.45s-.32.06-.53,0c-.62-.3-1.26-.57-1.85-.9-2.7-1.53-5.49-2.87-8.31-4.14a32.89,32.89,0,0,1-3.37-2c-.79-.47-1.55-1-2.33-1.45a1.67,1.67,0,0,1-.78-.91Z" transform="translate(-1327 -551.98)"/><path class="cls-2" d="M1375.3,629a.49.49,0,0,1-.63.16,14.55,14.55,0,0,1-2.11-.72c-2.87-1.47-6-2.34-8.94-3.58a27.79,27.79,0,0,1-4.68-2.13,8.54,8.54,0,0,1-.94-.77c-.06-.05,0-.25,0-.35a.56.56,0,0,1,.29-.23c.5-.16.89.17,1.3.34l6.16,2.64c.79.34,1.6.64,2.39,1a66.23,66.23,0,0,1,7.16,3.68Z" transform="translate(-1327 -551.98)"/><path class="cls-2" d="M1353.59,609.66a14.39,14.39,0,0,1,3.11,1.71c1.41.88,2.78,1.83,4.19,2.71a6.15,6.15,0,0,0,1,.37,4.57,4.57,0,0,1,.93.42,69.34,69.34,0,0,0,6.11,3.83.69.69,0,0,1,.21.26.16.16,0,0,1,0,.16c0,.09-.12.21-.21.24a1,1,0,0,1-.82-.16c-1.36-.74-2.72-1.46-4-2.28-.92-.57-1.86-1.12-2.81-1.66a32.54,32.54,0,0,1-4.39-2.7,23.4,23.4,0,0,0-2.19-1.35,1.8,1.8,0,0,1-1.07-1.55Z" transform="translate(-1327 -551.98)"/><path class="cls-2" d="M1391.88,625.41c.12-.1.29,0,.42.06l4,2.64a9.45,9.45,0,0,1,.94.73.5.5,0,0,1,.14.34c0,.1-.13.15-.31.08a1.74,1.74,0,0,1-.45-.17c-1.38-1-3-1.61-4.09-3a7.93,7.93,0,0,0-.58-.58.24.24,0,0,1,0-.13Z" transform="translate(-1327 -551.98)"/><path class="cls-2" d="M1341.51,603.86c-.48-.32-1-.66-1.52-1a.61.61,0,0,1,0-.82.81.81,0,0,1,.74-.4c.07,0,.14,0,.18,0l3.28,2.51c.06,0,0,.28,0,.41s-.24.19-.31.16l-2.33-.84Z" transform="translate(-1327 -551.98)"/><path class="cls-2" d="M1373.43,622.13a7.71,7.71,0,0,1-1.83-1.32.29.29,0,0,1,0-.29.38.38,0,0,1,.26-.17,1.34,1.34,0,0,1,.64.13c.6.43,1.18.89,1.76,1.36a.56.56,0,0,1,.16.43c0,.24-.24.13-.38.09s-.42-.16-.59-.23Z" transform="translate(-1327 -551.98)"/><path class="cls-2" d="M1348.52,608.45a5.74,5.74,0,0,1-1.75-1.46.47.47,0,0,1,0-.38c.07-.12.22-.27.32-.28s.52-.06.68.07c.58.47,1.13,1,1.67,1.51a.73.73,0,0,1,.1.56c-.08.33-.29.22-.44.19s-.43-.15-.61-.21Z" transform="translate(-1327 -551.98)"/><path class="cls-2" d="M1384.37,588.05c1.9,2.06,3.89,5.44,6,8.71,1.08,1.64,2.08,3.32,3.12,5,.21.34.4.7.58,1s.28.55,0,.71-.53,0-.72-.23a9.85,9.85,0,0,1-.85-1.08,156.87,156.87,0,0,0-9.28-13.32c-2.06-2.62-4.3-5.09-6.38-7.7a19.13,19.13,0,0,1-2.18-3.94.43.43,0,0,1,.24-.52.65.65,0,0,1,.58,0,4.82,4.82,0,0,1,1,1.17,16.45,16.45,0,0,0,2,2.79c1.76,2.13,3.45,4.32,5.86,7.39Z" transform="translate(-1327 -551.98)"/><path class="cls-2" d="M1398.5,623.5l4.47,3.73a28,28,0,0,1,3.28,3.25c.55.64,1.14,1.25,1.71,1.87.14.15.25.33.13.39s-.24-.06-.37-.14a7,7,0,0,1-1.31-1.1,49,49,0,0,0-4.7-4.25,81.8,81.8,0,0,1-6.38-5.53c-.57-.56-1.21-1.06-1.81-1.6a10.05,10.05,0,0,1-.73-.73c-.54-.6-.7-1-.45-1,.42-.06.67.33,1,.56,1.83,1.48,3.58,3.07,5.21,4.58Z" transform="translate(-1327 -551.98)"/><path class="cls-2" d="M1389.6,607.21a2.22,2.22,0,0,1,1.47,1c1.07,1.34,2.11,2.7,3.24,4a31,31,0,0,0,2.4,2.46,46.07,46.07,0,0,1,5.39,6.21,3.8,3.8,0,0,1,.35.57c.1.19.18.4.06.5s-.32,0-.48-.2c-.48-.49-1-1-1.44-1.48-2-2.35-4.18-4.56-6.39-6.72a33.08,33.08,0,0,1-2.48-3.08c-.58-.71-1.13-1.44-1.7-2.16a1.73,1.73,0,0,1-.42-1.13Z" transform="translate(-1327 -551.98)"/><path class="cls-2" d="M1386.17,611.69a.47.47,0,0,1-.64-.06,14,14,0,0,1-1.74-1.4c-2.2-2.36-4.81-4.24-7.17-6.42a26.64,26.64,0,0,1-3.67-3.61,7.77,7.77,0,0,1-.63-1c0-.07,0-.26.12-.33a.64.64,0,0,1,.36-.11c.53,0,.78.47,1.11.77l4.89,4.59c.63.58,1.28,1.14,1.92,1.72a69,69,0,0,1,5.45,5.89Z" transform="translate(-1327 -551.98)"/><path class="cls-2" d="M1372.37,586.15a14,14,0,0,1,2.34,2.66c1,1.31,2,2.67,3,4a5.59,5.59,0,0,0,.77.68,4.92,4.92,0,0,1,.73.71,71.62,71.62,0,0,0,4.44,5.68,1,1,0,0,1,.11.31.19.19,0,0,1,0,.15.67.67,0,0,1-.29.15.93.93,0,0,1-.71-.43c-1-1.16-2.07-2.3-3-3.51-.68-.86-1.37-1.7-2.09-2.52a36.42,36.42,0,0,1-3.19-4,24,24,0,0,0-1.6-2,1.75,1.75,0,0,1-.47-1.8Z" transform="translate(-1327 -551.98)"/><path class="cls-2" d="M1403,614c.14,0,.27.07.37.2l2.84,3.84a10.47,10.47,0,0,1,.63,1,.51.51,0,0,1,0,.38c-.05.09-.18.09-.32,0a2,2,0,0,1-.37-.33c-1-1.37-2.29-2.55-2.83-4.17-.09-.25-.24-.5-.35-.75a.22.22,0,0,1,0-.14Z" transform="translate(-1327 -551.98)"/><path class="cls-2" d="M1363,576.56c-.34-.46-.72-1-1.07-1.49-.15-.21,0-.55.25-.78a.79.79,0,0,1,.83-.12c.06,0,.13,0,.16.08l2.22,3.48c0,.06-.05.28-.14.38a.4.4,0,0,1-.35,0l-1.9-1.59Z" transform="translate(-1327 -551.98)"/><path class="cls-2" d="M1386.75,604.61a8.41,8.41,0,0,1-1.27-1.86.32.32,0,0,1,.08-.28.36.36,0,0,1,.31-.07,1.22,1.22,0,0,1,.56.35c.42.6.81,1.23,1.18,1.86a.57.57,0,0,1,0,.46c-.1.22-.27,0-.38,0s-.34-.3-.49-.42Z" transform="translate(-1327 -551.98)"/><path class="cls-2" d="M1368,583.25a5.66,5.66,0,0,1-1.14-2,.48.48,0,0,1,.17-.35.54.54,0,0,1,.39-.14c.23.06.51.12.62.3.38.63.72,1.3,1,2a.69.69,0,0,1-.1.54c-.19.28-.36.11-.48,0a6.05,6.05,0,0,1-.51-.41Z" transform="translate(-1327 -551.98)"/><path class="cls-2" d="M1408.7,576.32c1.08,2.58,1.79,6.44,2.69,10.25.44,1.91.81,3.83,1.22,5.74.08.4.14.8.18,1.19s.08.62-.28.66-.5-.22-.6-.49a7.68,7.68,0,0,1-.42-1.31,159.31,159.31,0,0,0-4.15-15.67c-1-3.17-2.3-6.27-3.36-9.43a19.48,19.48,0,0,1-.69-4.44c0-.21.21-.39.41-.41a.68.68,0,0,1,.54.19,4.92,4.92,0,0,1,.55,1.45,15.12,15.12,0,0,0,1,3.31c.92,2.61,1.76,5.25,3,9Z" transform="translate(-1327 -551.98)"/><path class="cls-2" d="M1409.86,614.44c1,1.76,2,3.4,2.93,5a28.33,28.33,0,0,1,2,4.17c.3.78.65,1.56,1,2.34.08.19.13.4,0,.42s-.2-.14-.29-.26a6.66,6.66,0,0,1-.85-1.48,50.24,50.24,0,0,0-3-5.6,81.68,81.68,0,0,1-4.11-7.38c-.34-.72-.78-1.41-1.16-2.12a10,10,0,0,1-.43-.94c-.31-.74-.33-1.18-.08-1.12.41.08.51.53.7.85,1.22,2,2.32,4.1,3.34,6.08Z" transform="translate(-1327 -551.98)"/><path class="cls-2" d="M1407.05,596.11a2.24,2.24,0,0,1,1,1.48c.55,1.63,1.07,3.26,1.68,4.87a33.76,33.76,0,0,0,1.42,3.13,46.09,46.09,0,0,1,2.94,7.67,3.94,3.94,0,0,1,.13.65c0,.21,0,.42-.12.48s-.28-.14-.38-.35c-.28-.62-.6-1.24-.84-1.88-1.09-2.91-2.37-5.72-3.71-8.5a33.82,33.82,0,0,1-1.28-3.75c-.3-.86-.57-1.74-.86-2.61a1.58,1.58,0,0,1,0-1.19Z" transform="translate(-1327 -551.98)"/><path class="cls-2" d="M1402.3,599.15c-.32.09-.47-.11-.59-.29a13.9,13.9,0,0,1-1.16-1.91c-1.25-3-3.08-5.63-4.55-8.48a27.45,27.45,0,0,1-2.22-4.64,7.69,7.69,0,0,1-.23-1.18c0-.07.13-.22.23-.26a.52.52,0,0,1,.37,0c.49.21.58.71.78,1.1l3,6c.39.76.81,1.51,1.21,2.27a67.42,67.42,0,0,1,3.12,7.4Z" transform="translate(-1327 -551.98)"/><path class="cls-2" d="M1398.06,570.42a14.4,14.4,0,0,1,1.29,3.31c.52,1.58,1,3.18,1.47,4.76a6.62,6.62,0,0,0,.5.9,4.3,4.3,0,0,1,.44.92,71.28,71.28,0,0,0,2.23,6.86.69.69,0,0,1,0,.32s0,.13-.09.14a.65.65,0,0,1-.33,0,1,1,0,0,1-.52-.66c-.56-1.43-1.15-2.87-1.63-4.33-.35-1-.71-2.06-1.1-3.07a34.88,34.88,0,0,1-1.62-4.88,24.21,24.21,0,0,0-.81-2.45,1.76,1.76,0,0,1,.17-1.86Z" transform="translate(-1327 -551.98)"/><path class="cls-2" d="M1417.3,607.07c.15,0,.23.16.28.32l1.35,4.58a9.22,9.22,0,0,1,.25,1.16.5.5,0,0,1-.1.36c-.08.08-.2,0-.29-.13a3.09,3.09,0,0,1-.24-.43c-.44-1.63-1.27-3.18-1.22-4.9,0-.26-.06-.55-.08-.82a.39.39,0,0,1,0-.14Z" transform="translate(-1327 -551.98)"/><path class="cls-2" d="M1405.26,592.68a7.81,7.81,0,0,1-.56-2.17.32.32,0,0,1,.18-.23.37.37,0,0,1,.31,0,1.27,1.27,0,0,1,.41.52c.18.71.33,1.43.47,2.16a.55.55,0,0,1-.15.43c-.17.16-.27-.06-.35-.19a5.39,5.39,0,0,1-.31-.56Z" transform="translate(-1327 -551.98)"/><path class="cls-2" d="M1435.55,573.64c.13,2.8-.52,6.67-1,10.56-.23,1.94-.54,3.87-.81,5.81,0,.39-.14.79-.23,1.18s-.14.6-.49.51a.61.61,0,0,1-.4-.65,8.92,8.92,0,0,1,0-1.37,161.91,161.91,0,0,0,1.45-16.16c.1-3.33,0-6.68,0-10a19.58,19.58,0,0,1,.87-4.41.45.45,0,0,1,.52-.25c.18,0,.42.24.44.37a4.75,4.75,0,0,1,0,1.55,15.85,15.85,0,0,0-.24,3.44c0,2.76-.13,5.53-.26,9.43Z" transform="translate(-1327 -551.98)"/><path class="cls-2" d="M1423.56,609.86c.36,2,.69,3.87,1,5.74a27.59,27.59,0,0,1,.43,4.58c0,.83.07,1.7.1,2.54,0,.21,0,.42-.15.39s-.14-.2-.18-.34a6.11,6.11,0,0,1-.29-1.68,50.08,50.08,0,0,0-.88-6.29c-.53-2.76-1.07-5.53-1.33-8.34-.07-.8-.24-1.59-.35-2.39,0-.34-.07-.69-.09-1,0-.81.1-1.23.32-1.09s.29.69.36,1c.45,2.32.77,4.65,1,6.86Z" transform="translate(-1327 -551.98)"/><path class="cls-2" d="M1427.23,591.68a2.18,2.18,0,0,1,.46,1.74c0,1.71-.12,3.43-.09,5.15a32.59,32.59,0,0,0,.26,3.42,46.1,46.1,0,0,1,.13,8.22,4.64,4.64,0,0,1-.11.65c0,.21-.11.41-.28.41s-.22-.23-.23-.46c-.06-.68-.15-1.37-.15-2,0-3.11-.26-6.19-.57-9.26a34.85,34.85,0,0,1,.09-4c0-.91.06-1.83.09-2.74a1.57,1.57,0,0,1,.4-1.12Z" transform="translate(-1327 -551.98)"/><path class="cls-2" d="M1421.73,592.9c-.33,0-.41-.26-.46-.47a14.12,14.12,0,0,1-.43-2.19c-.16-3.22-.95-6.35-1.36-9.53a26.66,26.66,0,0,1-.48-5.12,6.86,6.86,0,0,1,.19-1.19c0-.07.2-.17.3-.17a.52.52,0,0,1,.34.14c.39.37.3.86.36,1.3l.79,6.66c.11.85.25,1.7.36,2.55a67.3,67.3,0,0,1,.39,8Z" transform="translate(-1327 -551.98)"/><path class="cls-2" d="M1427.6,564.46a13.73,13.73,0,0,1,.07,3.55c0,1.66-.18,3.32-.24,5a7.17,7.17,0,0,0,.15,1,4.4,4.4,0,0,1,.11,1,69.39,69.39,0,0,0-.26,7.21.68.68,0,0,1-.11.3.2.2,0,0,1-.13.1.63.63,0,0,1-.32-.07,1,1,0,0,1-.27-.8c0-1.54-.1-3.09,0-4.63,0-1.09,0-2.17,0-3.26a35.27,35.27,0,0,1,.14-5.14,24.62,24.62,0,0,0,.08-2.58,1.77,1.77,0,0,1,.8-1.69Z" transform="translate(-1327 -551.98)"/><path class="cls-2" d="M1433.15,605.48c.15.06.17.24.16.4l-.29,4.76a9.3,9.3,0,0,1-.16,1.18.49.49,0,0,1-.22.31c-.1,0-.2,0-.23-.24a2.65,2.65,0,0,1-.07-.48c.14-1.68-.12-3.42.51-5a6.23,6.23,0,0,0,.21-.8.87.87,0,0,1,.09-.11Z" transform="translate(-1327 -551.98)"/><path class="cls-2" d="M1426.73,587.84a7.79,7.79,0,0,1,.22-2.23.3.3,0,0,1,.25-.15.37.37,0,0,1,.28.14,1.26,1.26,0,0,1,.2.63c-.07.73-.17,1.46-.29,2.19a.56.56,0,0,1-.29.35c-.22.09-.24-.15-.27-.29s-.07-.45-.1-.64Z" transform="translate(-1327 -551.98)"/><path class="cls-2" d="M1461.73,580.28c-.83,2.67-2.77,6.09-4.53,9.59-.89,1.74-1.85,3.45-2.76,5.18-.19.35-.4.69-.62,1s-.34.51-.63.31a.6.6,0,0,1-.16-.75,9.4,9.4,0,0,1,.52-1.27,160.69,160.69,0,0,0,6.9-14.67c1.24-3.1,2.27-6.29,3.49-9.4a19.39,19.39,0,0,1,2.33-3.84.44.44,0,0,1,.57-.05.67.67,0,0,1,.29.5,4.61,4.61,0,0,1-.51,1.46,15.88,15.88,0,0,0-1.41,3.15c-1,2.59-2,5.14-3.48,8.76Z" transform="translate(-1327 -551.98)"/><path class="cls-2" d="M1438.11,610.23c-.34,2-.66,3.87-1,5.74a27.66,27.66,0,0,1-1.16,4.47c-.27.79-.51,1.62-.76,2.42-.06.2-.16.39-.27.32s-.07-.24-.06-.39a6.23,6.23,0,0,1,.3-1.68,51.47,51.47,0,0,0,1.31-6.21,84.31,84.31,0,0,1,1.59-8.3c.2-.77.31-1.57.47-2.36.07-.34.17-.67.27-1,.25-.77.51-1.12.67-.91s0,.74,0,1.1c-.37,2.32-.86,4.63-1.36,6.8Z" transform="translate(-1327 -551.98)"/><path class="cls-2" d="M1447.74,594.38a2.28,2.28,0,0,1-.16,1.79c-.63,1.6-1.28,3.19-1.85,4.81a31.66,31.66,0,0,0-.92,3.3,47.32,47.32,0,0,1-2.68,7.78,5.24,5.24,0,0,1-.32.57c-.11.18-.25.36-.4.31s-.13-.3-.07-.52c.18-.66.34-1.34.56-2,1-2.93,1.87-5.9,2.63-8.9a32.29,32.29,0,0,1,1.42-3.69c.33-.85.69-1.7,1-2.55a1.57,1.57,0,0,1,.76-.92Z" transform="translate(-1327 -551.98)"/><path class="cls-2" d="M1442.15,593.65c-.3-.13-.29-.38-.26-.6a12.44,12.44,0,0,1,.34-2.2c.94-3.08,1.26-6.3,2-9.43a27.3,27.3,0,0,1,1.29-5,7.27,7.27,0,0,1,.58-1.06c0-.06.25-.08.35,0a.55.55,0,0,1,.27.25c.24.48,0,.91-.11,1.35l-1.51,6.52c-.2.84-.36,1.69-.53,2.53a67.85,67.85,0,0,1-2.37,7.66Z" transform="translate(-1327 -551.98)"/><path class="cls-2" d="M1457.37,568.93a13.83,13.83,0,0,1-1.14,3.36c-.61,1.54-1.31,3.06-1.93,4.59a5.82,5.82,0,0,0-.2,1,4.49,4.49,0,0,1-.25,1,67.58,67.58,0,0,0-2.7,6.68.72.72,0,0,1-.21.25.2.2,0,0,1-.16.05c-.1-.05-.23-.1-.27-.18a1,1,0,0,1,0-.84c.5-1.47,1-2.94,1.54-4.37.41-1,.78-2,1.14-3.06a34.91,34.91,0,0,1,1.89-4.78,24.76,24.76,0,0,0,1-2.39,1.77,1.77,0,0,1,1.33-1.31Z" transform="translate(-1327 -551.98)"/><path class="cls-2" d="M1448.55,609.37c.11.1.07.27,0,.42l-1.91,4.38a10.57,10.57,0,0,1-.56,1.05.51.51,0,0,1-.31.21c-.1,0-.17-.1-.13-.29a1.86,1.86,0,0,1,.1-.48c.7-1.53,1.06-3.25,2.2-4.54a8.19,8.19,0,0,0,.47-.68.27.27,0,0,1,.13-.07Z" transform="translate(-1327 -551.98)"/><path class="cls-2" d="M1448.58,590.6a7.55,7.55,0,0,1,1-2,.3.3,0,0,1,.28-.06.34.34,0,0,1,.21.23,1.22,1.22,0,0,1,0,.66c-.32.67-.67,1.31-1,2a.57.57,0,0,1-.4.23c-.24,0-.17-.23-.15-.37s.09-.45.13-.63Z" transform="translate(-1327 -551.98)"/><path class="cls-2" d="M1484,595.49c-1.7,2.23-4.69,4.78-7.54,7.46-1.43,1.34-2.91,2.62-4.36,3.93-.3.27-.62.52-.94.76s-.49.37-.71.08a.61.61,0,0,1,.12-.76,8.07,8.07,0,0,1,.92-1,157,157,0,0,0,11.5-11.43c2.22-2.48,4.28-5.12,6.49-7.62a20,20,0,0,1,3.5-2.83.45.45,0,0,1,.56.15.66.66,0,0,1,.1.56,4.77,4.77,0,0,1-1,1.2,15.58,15.58,0,0,0-2.39,2.48c-1.8,2.1-3.66,4.14-6.27,7Z" transform="translate(-1327 -551.98)"/><path class="cls-2" d="M1451.56,615.53c-1,1.77-2,3.41-2.91,5.05a27.68,27.68,0,0,1-2.62,3.79c-.52.64-1,1.34-1.54,2-.13.17-.29.31-.37.21s0-.25.07-.39a6.52,6.52,0,0,1,.86-1.47,49.55,49.55,0,0,0,3.37-5.38,83.25,83.25,0,0,1,4.35-7.25c.45-.65.83-1.37,1.26-2.05a8.64,8.64,0,0,1,.6-.85c.49-.64.86-.87.94-.63.12.41-.22.72-.4,1-1.14,2.06-2.4,4.06-3.61,5.92Z" transform="translate(-1327 -551.98)"/><path class="cls-2" d="M1466.05,604a2.23,2.23,0,0,1-.76,1.63c-1.14,1.29-2.3,2.55-3.38,3.88a32.32,32.32,0,0,0-2,2.79,46.27,46.27,0,0,1-5.18,6.38,4,4,0,0,1-.5.44c-.17.13-.35.24-.48.13s0-.32.12-.51c.4-.56.78-1.14,1.21-1.67,2-2.39,3.78-4.91,5.52-7.46a33.49,33.49,0,0,1,2.6-3c.6-.69,1.22-1.36,1.83-2a1.63,1.63,0,0,1,1-.6Z" transform="translate(-1327 -551.98)"/><path class="cls-2" d="M1461.05,601.36a.48.48,0,0,1,0-.65,13.72,13.72,0,0,1,1.07-2c2-2.57,3.35-5.48,5.08-8.17a27.51,27.51,0,0,1,2.92-4.24,8.59,8.59,0,0,1,.91-.79c.06,0,.26,0,.35.07a.56.56,0,0,1,.17.32c.06.53-.32.85-.57,1.23l-3.66,5.61c-.47.72-.91,1.46-1.37,2.19a67.18,67.18,0,0,1-4.86,6.39Z" transform="translate(-1327 -551.98)"/><path class="cls-2" d="M1483.83,583.35a13.83,13.83,0,0,1-2.22,2.76c-1.11,1.25-2.28,2.43-3.39,3.66a6.47,6.47,0,0,0-.54.88,4.14,4.14,0,0,1-.57.84,70,70,0,0,0-4.83,5.36.68.68,0,0,1-.29.16.18.18,0,0,1-.16,0c-.08-.08-.18-.17-.19-.26a.94.94,0,0,1,.3-.78c1-1.21,1.91-2.43,2.94-3.58.73-.81,1.43-1.64,2.12-2.48a33.73,33.73,0,0,1,3.42-3.85,24.14,24.14,0,0,0,1.71-1.92,1.77,1.77,0,0,1,1.7-.78Z" transform="translate(-1327 -551.98)"/><path class="cls-2" d="M1461.7,618.33c.08.13,0,.28-.13.4l-3.29,3.46a8.26,8.26,0,0,1-.88.79.54.54,0,0,1-.37.1c-.1,0-.13-.15,0-.32a3,3,0,0,1,.26-.42c1.18-1.19,2.1-2.69,3.62-3.51a7.07,7.07,0,0,0,.68-.48.32.32,0,0,1,.14,0Z" transform="translate(-1327 -551.98)"/><path class="cls-2" d="M1491.64,572.45c.41-.41.83-.87,1.29-1.31a.63.63,0,0,1,.82.11.81.81,0,0,1,.27.79.31.31,0,0,1,0,.17l-3,2.8c-.06,0-.29,0-.4-.07a.4.4,0,0,1-.11-.34l1.23-2.15Z" transform="translate(-1327 -551.98)"/><path class="cls-2" d="M1468.13,600.7a8,8,0,0,1,1.61-1.57.32.32,0,0,1,.28,0,.34.34,0,0,1,.13.29,1.24,1.24,0,0,1-.25.61c-.52.52-1.07,1-1.63,1.49a.56.56,0,0,1-.45.09c-.23-.08-.09-.27,0-.4s.23-.39.33-.55Z" transform="translate(-1327 -551.98)"/><path class="cls-2" d="M1485.92,578.56a5.54,5.54,0,0,1,1.73-1.47.46.46,0,0,1,.37.1.64.64,0,0,1,.22.36c0,.24,0,.53-.19.66a22.18,22.18,0,0,1-1.78,1.38.7.7,0,0,1-.55,0c-.32-.14-.17-.33-.11-.47a5.63,5.63,0,0,1,.31-.56Z" transform="translate(-1327 -551.98)"/><path class="cls-2" d="M1499.81,617.39c-2.35,1.51-6,2.88-9.63,4.44-1.8.77-3.63,1.47-5.45,2.21-.37.15-.75.27-1.14.39s-.59.18-.7-.16a.61.61,0,0,1,.36-.68,10.15,10.15,0,0,1,1.22-.64,156.75,156.75,0,0,0,14.71-6.82c2.94-1.58,5.77-3.36,8.7-5a19.48,19.48,0,0,1,4.26-1.46.46.46,0,0,1,.48.33.61.61,0,0,1-.09.56,4.63,4.63,0,0,1-1.33.79,16.2,16.2,0,0,0-3.1,1.52c-2.4,1.36-4.84,2.64-8.29,4.48Z" transform="translate(-1327 -551.98)"/><path class="cls-2" d="M1462.44,625.17l-4.45,3.76a27.38,27.38,0,0,1-3.76,2.67c-.72.43-1.42.91-2.13,1.35-.18.12-.36.19-.41.06s.1-.21.2-.33a6.43,6.43,0,0,1,1.31-1.09,49.45,49.45,0,0,0,5-3.91,82,82,0,0,1,6.56-5.33c.65-.46,1.25-1,1.88-1.51.27-.21.56-.4.85-.59.68-.43,1.1-.52,1.08-.26,0,.43-.44.6-.72.85-1.78,1.55-3.64,3-5.41,4.33Z" transform="translate(-1327 -551.98)"/><path class="cls-2" d="M1480,619.23a2.22,2.22,0,0,1-1.27,1.26c-1.5.83-3,1.62-4.5,2.51a28.79,28.79,0,0,0-2.83,1.93,46,46,0,0,1-7.06,4.24,5.14,5.14,0,0,1-.61.24c-.21.07-.42.11-.5,0s.1-.31.29-.44c.56-.4,1.12-.82,1.7-1.16,2.67-1.58,5.22-3.33,7.73-5.14a33.09,33.09,0,0,1,3.45-1.9c.8-.45,1.62-.86,2.42-1.3a1.65,1.65,0,0,1,1.18-.21Z" transform="translate(-1327 -551.98)"/><path class="cls-2" d="M1476.2,615.07c-.15-.29,0-.47.17-.62a13.71,13.71,0,0,1,1.68-1.47c2.7-1.76,5-4,7.56-6a27.49,27.49,0,0,1,4.19-3,8.5,8.5,0,0,1,1.13-.43c.07,0,.24.08.3.17a.53.53,0,0,1,0,.37c-.11.51-.59.69-.94,1l-5.36,4c-.69.52-1.35,1.07-2,1.6a67.43,67.43,0,0,1-6.75,4.35Z" transform="translate(-1327 -551.98)"/><path class="cls-2" d="M1503.76,605.89a14.42,14.42,0,0,1-3,1.85c-1.47.79-3,1.5-4.44,2.28a6.07,6.07,0,0,0-.8.64,4.38,4.38,0,0,1-.83.6c-2.19,1-4.29,2.18-6.37,3.39a.79.79,0,0,1-.32.06.2.2,0,0,1-.15-.07.51.51,0,0,1-.1-.3,1,1,0,0,1,.55-.64c1.32-.8,2.63-1.63,4-2.36,1-.51,1.9-1.05,2.83-1.61a35.39,35.39,0,0,1,4.53-2.46,22.56,22.56,0,0,0,2.27-1.22,1.78,1.78,0,0,1,1.87-.16Z" transform="translate(-1327 -551.98)"/><path class="cls-2" d="M1471,631.23c0,.15-.12.26-.26.33l-4.27,2.13a9.41,9.41,0,0,1-1.1.45.54.54,0,0,1-.38,0c-.09-.05-.07-.18.08-.3a2.24,2.24,0,0,1,.38-.31c1.52-.71,2.89-1.8,4.61-2.06.26,0,.53-.15.8-.22a.32.32,0,0,1,.14,0Z" transform="translate(-1327 -551.98)"/><path class="cls-2" d="M1514.81,598.31c.52-.25,1.08-.54,1.66-.8a.65.65,0,0,1,.74.38.79.79,0,0,1,0,.84c0,.06,0,.13-.1.15l-3.81,1.58c-.07,0-.27-.09-.36-.2a.39.39,0,0,1,0-.35l1.89-1.6Z" transform="translate(-1327 -551.98)"/><path class="cls-2" d="M1483.07,616.87a8,8,0,0,1,2-.93.3.3,0,0,1,.26.13.34.34,0,0,1,0,.31,1.17,1.17,0,0,1-.44.49c-.67.31-1.36.59-2,.85a.57.57,0,0,1-.46-.07c-.19-.14,0-.28.11-.38s.36-.28.5-.4Z" transform="translate(-1327 -551.98)"/><path class="cls-2" d="M1507.34,602.1a5.73,5.73,0,0,1,2.13-.79c.09,0,.26.12.32.22a.59.59,0,0,1,.08.41c-.1.22-.2.48-.39.56a22.43,22.43,0,0,1-2.15.69.7.7,0,0,1-.53-.19c-.25-.23,0-.36.06-.47a6,6,0,0,1,.48-.43Z" transform="translate(-1327 -551.98)"/><path class="cls-2" d="M1507.13,643.4c-2.74.61-6.66.64-10.57.86-2,.11-3.92.13-5.87.2-.41,0-.81,0-1.21,0s-.62,0-.61-.39.29-.46.57-.51a9.08,9.08,0,0,1,1.36-.19A159.26,159.26,0,0,0,1507,642c3.3-.47,6.57-1.17,9.87-1.66a19.94,19.94,0,0,1,4.5.09.45.45,0,0,1,.34.48c0,.19-.15.46-.28.49a4.65,4.65,0,0,1-1.51.29,16.43,16.43,0,0,0-3.43.35c-2.72.46-5.46.82-9.33,1.36Z" transform="translate(-1327 -551.98)"/><path class="cls-2" d="M1469.36,637.89l-5.47,2a28.54,28.54,0,0,1-4.45,1.22c-.82.16-1.65.37-2.46.55-.21,0-.42.05-.41-.09s.18-.17.31-.24a6.63,6.63,0,0,1,1.61-.58,51.66,51.66,0,0,0,6-2,82.62,82.62,0,0,1,8-2.76c.77-.21,1.52-.52,2.28-.77a9.2,9.2,0,0,1,1-.26c.79-.18,1.22-.12,1.11.12s-.62.41-1,.54c-2.2.85-4.45,1.57-6.57,2.22Z" transform="translate(-1327 -551.98)"/><path class="cls-2" d="M1487.9,638.32a2.16,2.16,0,0,1-1.62.75c-1.7.26-3.41.48-5.09.81a31.81,31.81,0,0,0-3.33.84,46.31,46.31,0,0,1-8.08,1.56,4.87,4.87,0,0,1-.66,0c-.22,0-.43,0-.46-.2s.2-.25.42-.31c.66-.18,1.33-.38,2-.51,3-.56,6-1.32,9-2.16a34.68,34.68,0,0,1,3.9-.6c.9-.15,1.81-.26,2.72-.39a1.65,1.65,0,0,1,1.18.2Z" transform="translate(-1327 -551.98)"/><path class="cls-2" d="M1485.75,633.12c0-.33.17-.44.38-.53a14.55,14.55,0,0,1,2.07-.81c3.15-.72,6.09-2,9.15-3a27.41,27.41,0,0,1,5-1.37,8.15,8.15,0,0,1,1.21,0c.08,0,.21.17.23.27a.49.49,0,0,1-.07.36c-.29.45-.8.45-1.22.58l-6.41,1.94c-.83.25-1.64.54-2.46.8a67.42,67.42,0,0,1-7.84,1.79Z" transform="translate(-1327 -551.98)"/><path class="cls-2" d="M1514.79,634a13.92,13.92,0,0,1-3.48.69c-1.65.24-3.3.39-5,.62a7.4,7.4,0,0,0-1,.33,5,5,0,0,1-1,.28,71.45,71.45,0,0,0-7.15,1,.66.66,0,0,1-.33-.06s-.11-.06-.11-.11a.58.58,0,0,1,0-.32,1,1,0,0,1,.74-.41c1.51-.3,3-.62,4.55-.84,1.08-.16,2.15-.34,3.22-.54a34.84,34.84,0,0,1,5.1-.75,24.47,24.47,0,0,0,2.55-.37,1.78,1.78,0,0,1,1.81.49Z" transform="translate(-1327 -551.98)"/><path class="cls-2" d="M1475.34,646.51c0,.15-.2.2-.36.22l-4.75.53a9.37,9.37,0,0,1-1.18,0,.5.5,0,0,1-.34-.16c-.06-.09,0-.2.18-.26a1.93,1.93,0,0,1,.46-.16c1.68-.15,3.33-.7,5-.36a7.53,7.53,0,0,0,.83.08s.08,0,.12.07Z" transform="translate(-1327 -551.98)"/><path class="cls-2" d="M1527.78,630.65c.57-.06,1.2-.14,1.83-.18.26,0,.5.24.55.61a.81.81,0,0,1-.32.78s-.09.1-.14.1l-4.13.18c-.07,0-.21-.19-.25-.32s.06-.3.14-.32l2.32-.85Z" transform="translate(-1327 -551.98)"/><path class="cls-2" d="M1491.59,637.16a8.13,8.13,0,0,1,2.24-.17.3.3,0,0,1,.2.21.34.34,0,0,1-.09.3,1.19,1.19,0,0,1-.57.31c-.74.06-1.48.08-2.22.09a.5.5,0,0,1-.4-.22c-.14-.2.1-.25.23-.31s.43-.15.61-.21Z" transform="translate(-1327 -551.98)"/><path class="cls-2" d="M1519.46,631.64a5.78,5.78,0,0,1,2.27,0,.53.53,0,0,1,.16.74c-.17.17-.37.38-.57.38a21.18,21.18,0,0,1-2.24-.09.68.68,0,0,1-.43-.36c-.16-.3.07-.35.21-.42a3.48,3.48,0,0,1,.6-.23Z" transform="translate(-1327 -551.98)"/></svg>