<svg id="Layer_1" data-name="Layer 1" xmlns="http://www.w3.org/2000/svg" viewBox="0 0 206 205.99"><defs><style>.cls-1{fill:none;stroke:#000;stroke-miterlimit:10;stroke-width:3px;}</style></defs><rect class="cls-1" x="1.5" y="1.5" width="203" height="202.99"/><path d="M1020.18,608.69c4.78-18.79,3.89-38.67.38-58.31h-26.8c7.19,15.57,12.15,31.86,12.73,48.61.78,22.6-10.51,37-25.29,52.77,18.6-10.83,33.44-21.25,39-43.07" transform="translate(-878.5 -548.48)"/><path d="M942.21,694.83c-4.78,18.8-3.89,38.67-.38,58.3h26.81c-7.19-15.57-12.16-31.86-12.74-48.6-.78-22.59,10.5-37,25.3-52.77-18.61,10.85-33.44,21.23-39,43.07" transform="translate(-878.5 -548.48)"/><path d="M994.76,594.93c-3.67-16.28-11.67-31-21.65-44.55H938.44c16.72,12.23,32.52,26.22,41.09,43.53,9.3,18.76,6.28,38.22,1.67,57.85,10.52-18.35,18.4-35.37,13.56-56.83" transform="translate(-878.5 -548.48)"/><path d="M967.63,708.59c3.67,16.27,11.67,31,21.65,44.54H1024c-16.72-12.22-32.51-26.2-41.09-43.52-9.32-18.8-6.25-38.18-1.66-57.85-10.49,18.37-18.41,35.35-13.57,56.83" transform="translate(-878.5 -548.48)"/><path d="M884.86,550.38h-5v36.16c24.34.92,48.78,4.85,69.66,17,18.91,11,25.64,28.12,31.72,48.26-.05-20.26-1.68-39.58-15-55.8-19.2-23.38-53.37-35-81.35-45.58" transform="translate(-878.5 -548.48)"/><path d="M1077.53,753.13h5V717c-24.35-.92-48.79-4.85-69.66-17-18.94-11-25.61-28.13-31.72-48.25.08,20.29,1.65,39.54,15,55.79,19.21,23.39,53.35,35,81.35,45.58" transform="translate(-878.5 -548.48)"/><path d="M938.12,612.77c-18.8-4.77-38.67-3.89-58.3-.38v26.8c15.57-7.18,31.85-12.15,48.6-12.73,22.61-.77,37,10.51,52.78,25.3-10.85-18.61-21.23-33.44-43.08-39" transform="translate(-878.5 -548.48)"/><path d="M1024.27,690.74c18.79,4.78,38.67,3.89,58.31.38v-26.8c-15.58,7.18-31.87,12.16-48.61,12.73-22.59.78-37-10.5-52.77-25.29,10.83,18.61,21.24,33.44,43.07,39" transform="translate(-878.5 -548.48)"/><path d="M924.36,638.2c-16.27,3.67-31,11.66-44.54,21.64v34.68C892,677.79,906,662,923.34,653.42c18.77-9.3,38.22-6.28,57.86-1.66-18.35-10.52-35.37-18.4-56.84-13.56" transform="translate(-878.5 -548.48)"/><path d="M1038,665.32c16.27-3.67,31-11.67,44.55-21.65V609c-12.23,16.73-26.21,32.52-43.53,41.1-18.81,9.31-38.18,6.25-57.85,1.66,18.37,10.49,35.35,18.4,56.83,13.56" transform="translate(-878.5 -548.48)"/><path d="M879.82,748.09v5H916c.91-24.34,4.84-48.78,17-69.65,11-18.92,28.12-25.64,48.26-31.72-20.27,0-39.58,1.67-55.8,15-23.38,19.2-35,53.36-45.58,81.34" transform="translate(-878.5 -548.48)"/><path d="M1082.58,555.43v-5h-36.17c-.91,24.35-4.84,48.79-17,69.66-11,18.93-28.13,25.6-48.25,31.72,20.29-.09,39.54-1.65,55.79-15,23.4-19.2,35-53.34,45.59-81.34" transform="translate(-878.5 -548.48)"/></svg>